<svg width="200px" height="60px" viewBox="0 0 200 60" version="1.1" xmlns="http://www.w3.org/2000/svg" xmlns:xlink="http://www.w3.org/1999/xlink">
    <defs>
        <linearGradient x1="0.00765239948%" y1="50.0131642%" x2="99.9496757%" y2="50.0131642%" id="linearGradient-1">
            <stop stop-color="#FFFFFF" offset="0%"></stop>
            <stop stop-color="#FFFFFF" stop-opacity="0.6" offset="99.96%"></stop>
        </linearGradient>
        <linearGradient x1="49.8521769%" y1="-0.00688311688%" x2="49.8521769%" y2="100.071948%" id="linearGradient-2">
            <stop stop-color="#FFFFFF" offset="0%"></stop>
            <stop stop-color="#FFFFFF" stop-opacity="0.6" offset="100%"></stop>
        </linearGradient>
        <linearGradient x1="50.0156325%" y1="99.9914397%" x2="50.0156325%" y2="0.0474708171%" id="linearGradient-3">
            <stop stop-color="#FFFFFF" offset="0%"></stop>
            <stop stop-color="#FFFFFF" stop-opacity="0.6" offset="100%"></stop>
        </linearGradient>
        <linearGradient x1="99.8761349%" y1="49.9868358%" x2="-0.0748378729%" y2="49.9868358%" id="linearGradient-4">
            <stop stop-color="#FFFFFF" offset="0%"></stop>
            <stop stop-color="#FFFFFF" stop-opacity="0.6" offset="100%"></stop>
        </linearGradient>
        <linearGradient x1="0.48586517%" y1="99.5487626%" x2="98.0222609%" y2="2.01236684%" id="linearGradient-5">
            <stop stop-color="#FFFFFF" offset="0%"></stop>
            <stop stop-color="#FFFFFF" stop-opacity="0.6" offset="100%"></stop>
        </linearGradient>
        <linearGradient x1="99.5551246%" y1="0.479858188%" x2="2.01908217%" y2="98.0162539%" id="linearGradient-6">
            <stop stop-color="#FFFFFF" offset="0%"></stop>
            <stop stop-color="#FFFFFF" stop-opacity="0.6" offset="100%"></stop>
        </linearGradient>
        <linearGradient x1="-5.5664311%" y1="-5.57314488%" x2="53.3720848%" y2="53.3657244%" id="linearGradient-7">
            <stop stop-color="#FFFFFF" offset="0%"></stop>
            <stop stop-color="#FFFFFF" stop-opacity="0.6" offset="100%"></stop>
        </linearGradient>
        <linearGradient x1="105.607774%" y1="105.601413%" x2="46.6689046%" y2="46.6625442%" id="linearGradient-8">
            <stop stop-color="#FFFFFF" offset="0%"></stop>
            <stop stop-color="#FFFFFF" stop-opacity="0.6" offset="100%"></stop>
        </linearGradient>
    </defs>
    <g id="Logos/Horizontal/Alt" stroke="none" stroke-width="1" fill="none" fill-rule="evenodd">
        <g id="Logo" transform="translate(20.000000, 11.000000)" fill-rule="nonzero">
            <g id="Wordmark" transform="translate(48.186356, 11.447587)" fill="#FFFFFF">
                <path d="M0.106489185,7.96006656 C0.106489185,5.48419301 0.532445923,3.56738769 1.4109817,2.23627288 C2.28951747,0.90515807 3.64725458,0.212978369 5.45757072,0.212978369 C6.44259567,0.212978369 7.29450915,0.399334443 7.98668885,0.772046589 C8.67886855,1.14475874 9.23793677,1.67720466 9.66389351,2.34276206 C10.0898502,3.00831947 10.4093178,3.83361065 10.5690516,4.79201331 C10.7554077,5.75041597 10.8352745,6.78868552 10.8352745,7.96006656 C10.8352745,10.4359401 10.4093178,12.3527454 9.53078203,13.6838602 C8.65224626,15.014975 7.29450915,15.7071547 5.43094842,15.7071547 C4.44592346,15.7071547 3.62063228,15.5207987 2.92845258,15.1480865 C2.23627288,14.7753744 1.67720466,14.2429285 1.25124792,13.577371 C0.825291181,12.9118136 0.505823627,12.0865225 0.34608985,11.1281198 C0.186356073,10.1697171 0.106489185,9.13144759 0.106489185,7.96006656 Z M1.97004992,7.96006656 C1.97004992,8.78535774 2.02329451,9.58402662 2.12978369,10.3028286 C2.23627288,11.0482529 2.42262895,11.687188 2.68885191,12.2728785 C2.95507488,12.8319468 3.32778702,13.2845258 3.75374376,13.6306156 C4.2063228,13.9767055 4.76539101,14.1364393 5.45757072,14.1364393 C6.68219634,14.1364393 7.58735441,13.6306156 8.14642263,12.6455907 C8.70549085,11.6605657 8.99833611,10.0898502 8.99833611,7.98668885 C8.99833611,7.16139767 8.94509151,6.38935108 8.83860233,5.64392679 C8.73211314,4.8985025 8.54575707,4.23294509 8.27953411,3.67387687 C8.01331115,3.11480865 7.640599,2.66222962 7.18801997,2.31613977 C6.73544093,1.97004992 6.14975042,1.81031614 5.48419301,1.81031614 C4.25956739,1.81031614 3.38103161,2.31613977 2.82196339,3.32778702 C2.23627288,4.31281198 1.97004992,5.85690516 1.97004992,7.96006656 Z" id="Shape"></path>
                <path d="M13.9500832,8.49251248 C13.9500832,8.359401 13.9500832,8.19966722 13.9500832,7.98668885 C13.9500832,7.77371048 13.9234609,7.56073211 13.9234609,7.34775374 C13.8968386,7.13477537 13.8968386,6.921797 13.8702163,6.68219634 C13.843594,6.46921797 13.8169717,6.2828619 13.7903494,6.12312812 L12.3527454,6.12312812 L12.3527454,4.73876872 L15.2013311,4.73876872 L15.4143095,6.2296173 L15.5207987,6.2296173 C15.8935108,5.72379368 16.3993344,5.32445923 16.985025,4.97836938 C17.5707155,4.63227953 18.2895175,4.47254576 19.1680532,4.47254576 C20.6855241,4.47254576 21.8302829,4.8985025 22.6023295,5.72379368 C23.374376,6.57570715 23.7470882,7.93344426 23.7470882,9.85024958 C23.7470882,10.7554077 23.6139767,11.5540765 23.3477537,12.2728785 C23.0815308,12.9916805 22.7088186,13.6039933 22.2296173,14.109817 C21.750416,14.6156406 21.1647255,14.9883527 20.4725458,15.2545757 C19.7803661,15.5207987 19.0349418,15.6539101 18.2096506,15.6539101 C17.9168053,15.6539101 17.6505824,15.6539101 17.4109817,15.6272879 C17.171381,15.6006656 16.9584027,15.5740433 16.7720466,15.547421 C16.5856905,15.5207987 16.3993344,15.4675541 16.2129784,15.4143095 C16.0266223,15.3610649 15.8402662,15.281198 15.6006656,15.2013311 L15.6006656,19.1148087 L13.9500832,19.1148087 L13.9500832,8.49251248 Z M18.875208,6.06988353 C18.4492512,6.06988353 18.0499168,6.14975042 17.6772047,6.30948419 C17.3044925,6.46921797 16.9584027,6.68219634 16.6655574,6.921797 C16.3727121,7.18801997 16.1331115,7.45424293 15.9467554,7.77371048 C15.7603993,8.09317804 15.6539101,8.41264559 15.6006656,8.70549085 L15.6006656,13.577371 C15.9201331,13.7903494 16.266223,13.9500832 16.6655574,14.0831947 C17.0648918,14.2163062 17.5707155,14.2695507 18.2096506,14.2695507 C19.3544093,14.2695507 20.2595674,13.8968386 20.9517471,13.1514143 C21.6439268,12.40599 21.9900166,11.3144759 21.9900166,9.87687188 C21.9900166,8.67886855 21.750416,7.72046589 21.2712146,7.08153078 C20.7920133,6.38935108 19.9933444,6.06988353 18.875208,6.06988353 Z" id="Shape"></path>
                <path d="M35.6738769,14.0831947 C35.4076539,14.3227953 35.1148087,14.5357737 34.7687188,14.7221298 C34.422629,14.9351082 34.0499168,15.0948419 33.6239601,15.2279534 C33.1980033,15.3610649 32.7720466,15.4941764 32.3194676,15.547421 C31.8668885,15.6272879 31.4143095,15.6539101 30.9617304,15.6539101 C30.109817,15.6539101 29.3377704,15.5207987 28.6988353,15.2545757 C28.0332779,14.9883527 27.5008319,14.6156406 27.0482529,14.109817 C26.5956739,13.6306156 26.2762063,13.0183028 26.0366057,12.3527454 C25.797005,11.6605657 25.6905158,10.8885191 25.6905158,10.0366057 C25.6905158,9.13144759 25.8236273,8.3327787 26.063228,7.640599 C26.3028286,6.9484193 26.6755408,6.36272879 27.1547421,5.88352745 C27.6339434,5.40432612 28.1930116,5.05823627 28.8585691,4.79201331 C29.5241265,4.55241265 30.2695507,4.41930116 31.0948419,4.41930116 C31.6805324,4.41930116 32.2928453,4.49916805 32.8785358,4.65890183 C33.4642263,4.81863561 33.9700499,5.11148087 34.422629,5.5374376 C34.875208,5.96339434 35.2212978,6.57570715 35.4608985,7.32113145 C35.7004992,8.09317804 35.7803661,9.078203 35.7271215,10.2762063 L27.4742097,10.2762063 C27.4742097,11.5540765 27.8202995,12.5124792 28.5124792,13.1514143 C29.2046589,13.7903494 30.109817,14.109817 31.281198,14.109817 C31.6539101,14.109817 32.0532446,14.0565724 32.4259567,13.9767055 C32.7986689,13.8968386 33.171381,13.7637271 33.4908486,13.6572379 C33.8369384,13.5241265 34.1297837,13.391015 34.3960067,13.2312812 C34.6622296,13.0715474 34.8485857,12.9384359 35.0083195,12.8053245 L35.6738769,14.0831947 Z M31.1480865,5.91014975 C30.6688852,5.91014975 30.2429285,5.96339434 29.8169717,6.06988353 C29.391015,6.17637271 29.0183028,6.33610649 28.6988353,6.57570715 C28.3793677,6.81530782 28.1131448,7.10815308 27.9001664,7.50748752 C27.687188,7.88019967 27.5540765,8.359401 27.5008319,8.91846922 L34.1297837,8.91846922 C34.0499168,7.98668885 33.7570715,7.24126456 33.2246256,6.73544093 C32.718802,6.14975042 32.0266223,5.91014975 31.1480865,5.91014975 Z" id="Shape"></path>
                <path d="M38.921797,8.49251248 C38.921797,8.359401 38.921797,8.19966722 38.921797,7.98668885 C38.921797,7.77371048 38.8951747,7.56073211 38.8951747,7.34775374 C38.8685524,7.13477537 38.8685524,6.921797 38.8419301,6.68219634 C38.8153078,6.46921797 38.7886855,6.2828619 38.7620632,6.12312812 L37.3244592,6.12312812 L37.3244592,4.73876872 L40.1996672,4.73876872 L40.3860233,6.46921797 L40.4925125,6.46921797 C40.625624,6.2296173 40.81198,5.99001664 41.0515807,5.75041597 C41.2911814,5.51081531 41.5574043,5.29783694 41.8768719,5.11148087 C42.1963394,4.92512479 42.5424293,4.76539101 42.9151414,4.65890183 C43.2878536,4.55241265 43.7138103,4.49916805 44.1397671,4.49916805 C44.8053245,4.49916805 45.3643927,4.57903494 45.8702163,4.71214642 C46.3760399,4.8452579 46.8019967,5.11148087 47.1214642,5.48419301 C47.4675541,5.85690516 47.7071547,6.33610649 47.8935108,6.9484193 C48.0532446,7.56073211 48.1597338,8.359401 48.1597338,9.31780366 L48.1597338,15.4409318 L46.4825291,15.4409318 L46.4825291,9.63727121 C46.4825291,8.46589018 46.296173,7.56073211 45.8968386,6.9750416 C45.5241265,6.38935108 44.8053245,6.06988353 43.8202995,6.06988353 C43.4475874,6.06988353 43.1014975,6.14975042 42.7554077,6.2828619 C42.4093178,6.44259567 42.0898502,6.62895175 41.797005,6.86855241 C41.5041597,7.10815308 41.2645591,7.40099834 41.0515807,7.72046589 C40.8386023,8.03993344 40.6788686,8.38602329 40.5723794,8.73211314 L40.5723794,15.4409318 L38.921797,15.4409318 L38.921797,8.49251248 Z" id="Shape"></path>
                <path d="M76.1930116,8.49251248 C76.1930116,8.359401 76.1930116,8.19966722 76.1930116,7.98668885 C76.1930116,7.77371048 76.1663894,7.56073211 76.1663894,7.34775374 C76.1397671,7.13477537 76.1397671,6.921797 76.1131448,6.68219634 C76.0865225,6.46921797 76.0599002,6.2828619 76.0332779,6.12312812 L74.5956739,6.12312812 L74.5956739,4.73876872 L77.4708819,4.73876872 L77.6572379,6.46921797 L77.7637271,6.46921797 C77.8968386,6.2296173 78.0831947,5.99001664 78.3227953,5.75041597 C78.562396,5.51081531 78.828619,5.29783694 79.1480865,5.11148087 C79.4675541,4.92512479 79.8136439,4.76539101 80.1863561,4.65890183 C80.5590682,4.55241265 80.985025,4.49916805 81.4109817,4.49916805 C82.0765391,4.49916805 82.6356073,4.57903494 83.1414309,4.71214642 C83.6472546,4.8452579 84.0732113,5.11148087 84.3926789,5.48419301 C84.7387687,5.85690516 84.9783694,6.33610649 85.1647255,6.9484193 C85.3244592,7.56073211 85.4309484,8.359401 85.4309484,9.31780366 L85.4309484,15.4409318 L83.7537438,15.4409318 L83.7537438,9.63727121 C83.7537438,8.46589018 83.5673877,7.56073211 83.1680532,6.9750416 C82.7953411,6.38935108 82.0765391,6.06988353 81.0915141,6.06988353 C80.718802,6.06988353 80.3727121,6.14975042 80.0266223,6.2828619 C79.6805324,6.44259567 79.3610649,6.62895175 79.0682196,6.86855241 C78.7753744,7.10815308 78.5357737,7.40099834 78.3227953,7.72046589 C78.109817,8.03993344 77.9500832,8.38602329 77.843594,8.73211314 L77.843594,15.4409318 L76.1930116,15.4409318 L76.1930116,8.49251248 Z" id="Shape"></path>
                <path d="M97.9966722,14.0831947 C97.7304493,14.3227953 97.437604,14.5357737 97.0915141,14.7221298 C96.7454243,14.9351082 96.3727121,15.0948419 95.9467554,15.2279534 C95.5207987,15.3610649 95.0948419,15.4941764 94.6422629,15.547421 C94.1896839,15.6272879 93.7371048,15.6539101 93.2845258,15.6539101 C92.4326123,15.6539101 91.6605657,15.5207987 91.0216306,15.2545757 C90.3826955,14.9883527 89.8236273,14.6156406 89.3710483,14.109817 C88.9184692,13.6306156 88.5990017,13.0183028 88.359401,12.3527454 C88.1198003,11.6605657 88.0133111,10.8885191 88.0133111,10.0366057 C88.0133111,9.13144759 88.1464226,8.3327787 88.3860233,7.640599 C88.625624,6.9484193 88.9983361,6.36272879 89.4775374,5.88352745 C89.9567388,5.40432612 90.515807,5.05823627 91.1813644,4.79201331 C91.8469218,4.55241265 92.5923461,4.41930116 93.4176373,4.41930116 C94.0033278,4.41930116 94.6156406,4.49916805 95.2013311,4.65890183 C95.7870216,4.81863561 96.2928453,5.11148087 96.7454243,5.5374376 C97.1980033,5.96339434 97.5440932,6.57570715 97.7836938,7.32113145 C98.0232945,8.09317804 98.1031614,9.078203 98.0499168,10.2762063 L89.797005,10.2762063 C89.797005,11.5540765 90.1430948,12.5124792 90.8352745,13.1514143 C91.5274542,13.7903494 92.4592346,14.109817 93.6039933,14.109817 C93.9767055,14.109817 94.3760399,14.0565724 94.7487521,13.9767055 C95.1214642,13.8968386 95.4941764,13.7637271 95.8136439,13.6572379 C96.1597338,13.5241265 96.452579,13.391015 96.718802,13.2312812 C96.985025,13.0715474 97.171381,12.9384359 97.3311148,12.8053245 L97.9966722,14.0831947 Z M93.4975042,5.91014975 C93.0183028,5.91014975 92.5923461,5.96339434 92.1663894,6.06988353 C91.7404326,6.17637271 91.3677205,6.33610649 91.0482529,6.57570715 C90.7287854,6.81530782 90.4625624,7.10815308 90.249584,7.50748752 C90.0366057,7.88019967 89.9034942,8.359401 89.8502496,8.91846922 L96.4792013,8.91846922 C96.3993344,7.98668885 96.1064892,7.24126456 95.5740433,6.73544093 C95.0682196,6.14975042 94.3494176,5.91014975 93.4975042,5.91014975 Z" id="Shape"></path>
                <path d="M110.37604,14.0565724 C110.349418,13.8968386 110.322795,13.7104825 110.296173,13.5241265 C110.269551,13.3111481 110.242928,13.0981697 110.216306,12.8851913 C110.189684,12.672213 110.189684,12.4592346 110.163062,12.2728785 C110.136439,12.0865225 110.136439,11.9267887 110.136439,11.7936772 L110.136439,0.479201331 L108.459235,0.479201331 L108.459235,4.95174709 C108.246256,4.8985025 108.0599,4.8452579 107.873544,4.79201331 C107.687188,4.73876872 107.500832,4.71214642 107.314476,4.68552413 C107.12812,4.65890183 106.888519,4.63227953 106.675541,4.63227953 C106.43594,4.60565724 106.169717,4.60565724 105.876872,4.60565724 C105.051581,4.60565724 104.306156,4.73876872 103.640599,4.97836938 C102.975042,5.21797005 102.389351,5.5640599 101.91015,6.04326123 C101.430948,6.49584027 101.058236,7.08153078 100.818636,7.77371048 C100.552413,8.46589018 100.445923,9.26455907 100.445923,10.1697171 C100.445923,12.0865225 100.818636,13.4975042 101.590682,14.4026622 C102.362729,15.3078203 103.53411,15.7603993 105.131448,15.7603993 C105.930116,15.7603993 106.648918,15.5740433 107.287854,15.2279534 C107.900166,14.8552413 108.379368,14.4026622 108.698835,13.8702163 L108.778702,13.8702163 L108.991681,15.5207987 L111.813644,15.5207987 L111.813644,14.1364393 L110.37604,14.1364393 L110.37604,14.0565724 Z M108.459235,11.5540765 C108.272879,12.4592346 107.926789,13.124792 107.447587,13.577371 C106.941764,14.0299501 106.276206,14.2429285 105.397671,14.2429285 C104.81198,14.2429285 104.306156,14.1364393 103.8802,13.9234609 C103.480865,13.7104825 103.134775,13.4176373 102.895175,13.0449251 C102.655574,12.672213 102.469218,12.2462562 102.362729,11.7404326 C102.25624,11.234609 102.202995,10.6755408 102.202995,10.1164725 C102.202995,8.67886855 102.522463,7.640599 103.18802,6.9750416 C103.853577,6.30948419 104.732113,5.99001664 105.876872,5.99001664 C106.515807,5.99001664 107.021631,6.04326123 107.420965,6.14975042 C107.8203,6.2562396 108.166389,6.41597338 108.485857,6.62895175 L108.485857,11.5540765 L108.459235,11.5540765 Z" id="Shape"></path>
                <path d="M64.7720466,15.4409318 L64.7720466,14.0033278 L68.4991681,14.0033278 L68.4991681,6.17637271 L64.7720466,6.17637271 L64.7720466,4.73876872 L70.1763727,4.73876872 L70.1763727,14.0033278 L73.8236273,14.0033278 L73.8236273,15.4409318 L64.7720466,15.4409318 Z M70.7088186,1.86356073 L69.2978369,0.452579035 L67.8868552,1.86356073 L69.2978369,3.27454243 L70.7088186,1.86356073 Z" id="Shape"></path>
                <path d="M60.3261231,0.452579035 L56.7587354,6.17637271 L53.1913478,0.452579035 L51.5407654,0.452579035 L51.5407654,15.4409318 L53.2712146,15.4409318 L53.2712146,3.94009983 L56.093178,8.359401 C56.4126456,8.83860233 57.1314476,8.83860233 57.4242928,8.359401 L60.2462562,3.94009983 L60.2462562,15.4409318 L61.9767055,15.4409318 L61.9767055,0.479201331 L60.3261231,0.479201331 L60.3261231,0.452579035 Z" id="Shape"></path>
            </g>
            <g id="Brandmark">
                <path d="M17.6505824,1.19800333 L11.7138103,11.4742097 L19.6738769,6.86855241 L32.2396007,19.4342762 L21.6971714,1.19800333 C20.7920133,-0.372712146 18.5557404,-0.372712146 17.6505824,1.19800333 Z" id="Shape" fill="url(#linearGradient-1)"></path>
                <path d="M27.6339434,11.4742097 L32.2396007,19.4342762 L19.7004992,31.9733777 L37.936772,21.4309484 C39.5074875,20.5257903 39.5074875,18.2895175 37.936772,17.3843594 L27.6339434,11.4742097 Z" id="Shape" fill="url(#linearGradient-2)"></path>
                <path d="M7.10815308,19.4342762 L19.6738769,6.86855241 L1.43760399,17.4109817 C-0.133111481,18.3161398 -0.133111481,20.5524126 1.43760399,21.4575707 L11.7138103,27.3943428 L7.10815308,19.4342762 Z" id="Shape" fill="url(#linearGradient-3)"></path>
                <path d="M19.6738769,32 L7.13477537,19.4342762 L17.6772047,37.6705491 C18.5823627,39.2412646 20.8186356,39.2412646 21.7237937,37.6705491 L27.6605657,27.3943428 L19.6738769,32 Z" id="Shape" fill="url(#linearGradient-4)"></path>
                <polygon id="Shape" fill="url(#linearGradient-5)" points="19.6738769 19.4342762 27.2079867 19.4342762 19.6738769 11.9001664"></polygon>
                <polygon id="Shape" fill="url(#linearGradient-6)" points="19.6738769 19.4342762 12.1397671 19.4342762 19.6738769 26.968386"></polygon>
                <polygon id="Shape" fill="url(#linearGradient-7)" points="19.6738769 19.4342762 19.6738769 26.968386 27.2079867 19.4342762"></polygon>
                <polygon id="Shape" fill="url(#linearGradient-8)" points="19.6738769 19.4342762 19.6738769 11.9001664 12.1397671 19.4342762"></polygon>
            </g>
        </g>
    </g>
</svg>
